<mxfile host="app.diagrams.net" modified="2023-05-06T15:28:59.029Z" agent="Mozilla/5.0 (Macintosh; Intel Mac OS X 10_15_7) AppleWebKit/605.1.15 (KHTML, like Gecko) Version/16.4 Safari/605.1.15" etag="cwJjtIOwYFoTaYrPM9WC" version="21.2.9" type="device">
  <diagram name="Page-1" id="cMLY1CoPsoS9Ke2ZEgan">
    <mxGraphModel dx="984" dy="667" grid="1" gridSize="10" guides="1" tooltips="1" connect="1" arrows="1" fold="1" page="1" pageScale="1" pageWidth="850" pageHeight="1100" math="0" shadow="0">
      <root>
        <mxCell id="0" />
        <mxCell id="1" parent="0" />
        <mxCell id="wTbuUublP3CUo9RuaERG-1" value="Student" style="swimlane;whiteSpace=wrap;html=1;fillColor=#fff2cc;strokeColor=#d6b656;" parent="1" vertex="1">
          <mxGeometry x="425" y="98" width="195" height="122" as="geometry">
            <mxRectangle x="320" y="210" width="90" height="30" as="alternateBounds" />
          </mxGeometry>
        </mxCell>
        <mxCell id="wTbuUublP3CUo9RuaERG-7" value="name" style="text;html=1;align=center;verticalAlign=middle;resizable=0;points=[];autosize=1;strokeColor=none;fillColor=none;" parent="wTbuUublP3CUo9RuaERG-1" vertex="1">
          <mxGeometry x="70" y="50" width="50" height="30" as="geometry" />
        </mxCell>
        <mxCell id="6YYBpAp1T_IyO7PGqdv9-1" value="bronco_id" style="text;html=1;align=center;verticalAlign=middle;resizable=0;points=[];autosize=1;strokeColor=none;fillColor=none;" parent="wTbuUublP3CUo9RuaERG-1" vertex="1">
          <mxGeometry x="55" y="30" width="80" height="30" as="geometry" />
        </mxCell>
        <mxCell id="6YYBpAp1T_IyO7PGqdv9-3" value="course" style="text;html=1;align=center;verticalAlign=middle;resizable=0;points=[];autosize=1;strokeColor=none;fillColor=none;" parent="wTbuUublP3CUo9RuaERG-1" vertex="1">
          <mxGeometry x="65" y="80" width="60" height="30" as="geometry" />
        </mxCell>
        <mxCell id="ZKemoDgkjOs0aR_X4RYM-13" style="edgeStyle=orthogonalEdgeStyle;rounded=0;orthogonalLoop=1;jettySize=auto;html=1;exitX=0.5;exitY=0;exitDx=0;exitDy=0;endArrow=block;endFill=0;" parent="1" source="wTbuUublP3CUo9RuaERG-3" edge="1">
          <mxGeometry relative="1" as="geometry">
            <mxPoint x="280" y="500" as="targetPoint" />
          </mxGeometry>
        </mxCell>
        <mxCell id="wTbuUublP3CUo9RuaERG-3" value="Book" style="swimlane;whiteSpace=wrap;html=1;fillColor=#fff2cc;strokeColor=#d6b656;" parent="1" vertex="1">
          <mxGeometry x="60" y="570" width="200" height="150" as="geometry">
            <mxRectangle x="320" y="210" width="90" height="30" as="alternateBounds" />
          </mxGeometry>
        </mxCell>
        <mxCell id="ZKemoDgkjOs0aR_X4RYM-4" value="pages" style="text;html=1;align=center;verticalAlign=middle;resizable=0;points=[];autosize=1;strokeColor=none;fillColor=none;" parent="wTbuUublP3CUo9RuaERG-3" vertex="1">
          <mxGeometry x="60" y="55" width="60" height="30" as="geometry" />
        </mxCell>
        <mxCell id="ZKemoDgkjOs0aR_X4RYM-5" value="publisher" style="text;html=1;align=center;verticalAlign=middle;resizable=0;points=[];autosize=1;strokeColor=none;fillColor=none;" parent="wTbuUublP3CUo9RuaERG-3" vertex="1">
          <mxGeometry x="55" y="85" width="70" height="30" as="geometry" />
        </mxCell>
        <mxCell id="ZKemoDgkjOs0aR_X4RYM-6" value="publication_date" style="text;html=1;align=center;verticalAlign=middle;resizable=0;points=[];autosize=1;strokeColor=none;fillColor=none;" parent="wTbuUublP3CUo9RuaERG-3" vertex="1">
          <mxGeometry x="35" y="115" width="110" height="30" as="geometry" />
        </mxCell>
        <mxCell id="ZKemoDgkjOs0aR_X4RYM-14" style="edgeStyle=orthogonalEdgeStyle;rounded=0;orthogonalLoop=1;jettySize=auto;html=1;exitX=0.5;exitY=0;exitDx=0;exitDy=0;entryX=0.75;entryY=1;entryDx=0;entryDy=0;endArrow=block;endFill=0;" parent="1" source="wTbuUublP3CUo9RuaERG-4" target="wTbuUublP3CUo9RuaERG-11" edge="1">
          <mxGeometry relative="1" as="geometry" />
        </mxCell>
        <mxCell id="wTbuUublP3CUo9RuaERG-4" value="Documentary" style="swimlane;whiteSpace=wrap;html=1;fillColor=#fff2cc;strokeColor=#d6b656;" parent="1" vertex="1">
          <mxGeometry x="410" y="570" width="190" height="150" as="geometry">
            <mxRectangle x="320" y="210" width="90" height="30" as="alternateBounds" />
          </mxGeometry>
        </mxCell>
        <mxCell id="ZKemoDgkjOs0aR_X4RYM-7" value="director" style="text;html=1;align=center;verticalAlign=middle;resizable=0;points=[];autosize=1;strokeColor=none;fillColor=none;" parent="wTbuUublP3CUo9RuaERG-4" vertex="1">
          <mxGeometry x="65" y="40" width="60" height="30" as="geometry" />
        </mxCell>
        <mxCell id="ZKemoDgkjOs0aR_X4RYM-11" value="length" style="text;html=1;align=center;verticalAlign=middle;resizable=0;points=[];autosize=1;strokeColor=none;fillColor=none;" parent="wTbuUublP3CUo9RuaERG-4" vertex="1">
          <mxGeometry x="65" y="70" width="60" height="30" as="geometry" />
        </mxCell>
        <mxCell id="ZKemoDgkjOs0aR_X4RYM-16" style="edgeStyle=orthogonalEdgeStyle;rounded=0;orthogonalLoop=1;jettySize=auto;html=1;exitX=1;exitY=0.5;exitDx=0;exitDy=0;entryX=0;entryY=0.5;entryDx=0;entryDy=0;startArrow=diamondThin;startFill=0;endArrow=none;endFill=0;" parent="1" source="wTbuUublP3CUo9RuaERG-5" target="wTbuUublP3CUo9RuaERG-1" edge="1">
          <mxGeometry relative="1" as="geometry" />
        </mxCell>
        <mxCell id="ZKemoDgkjOs0aR_X4RYM-17" style="edgeStyle=orthogonalEdgeStyle;rounded=0;orthogonalLoop=1;jettySize=auto;html=1;exitX=0.5;exitY=1;exitDx=0;exitDy=0;entryX=0.5;entryY=0;entryDx=0;entryDy=0;startArrow=diamondThin;startFill=0;endArrow=none;endFill=0;" parent="1" source="wTbuUublP3CUo9RuaERG-5" target="wTbuUublP3CUo9RuaERG-11" edge="1">
          <mxGeometry relative="1" as="geometry" />
        </mxCell>
        <mxCell id="wTbuUublP3CUo9RuaERG-5" value="Loan" style="swimlane;whiteSpace=wrap;html=1;fillColor=#fff2cc;strokeColor=#d6b656;" parent="1" vertex="1">
          <mxGeometry x="50" y="80" width="180" height="110" as="geometry">
            <mxRectangle x="320" y="210" width="90" height="30" as="alternateBounds" />
          </mxGeometry>
        </mxCell>
        <mxCell id="wTbuUublP3CUo9RuaERG-8" value="number" style="text;html=1;align=center;verticalAlign=middle;resizable=0;points=[];autosize=1;strokeColor=none;fillColor=none;" parent="wTbuUublP3CUo9RuaERG-5" vertex="1">
          <mxGeometry x="55" y="30" width="60" height="30" as="geometry" />
        </mxCell>
        <mxCell id="wTbuUublP3CUo9RuaERG-9" value="date" style="text;html=1;align=center;verticalAlign=middle;resizable=0;points=[];autosize=1;strokeColor=none;fillColor=none;" parent="wTbuUublP3CUo9RuaERG-5" vertex="1">
          <mxGeometry x="60" y="55" width="50" height="30" as="geometry" />
        </mxCell>
        <mxCell id="wTbuUublP3CUo9RuaERG-10" value="due_date" style="text;html=1;align=center;verticalAlign=middle;resizable=0;points=[];autosize=1;strokeColor=none;fillColor=none;" parent="wTbuUublP3CUo9RuaERG-5" vertex="1">
          <mxGeometry x="55" y="78" width="70" height="30" as="geometry" />
        </mxCell>
        <mxCell id="wTbuUublP3CUo9RuaERG-11" value="Item" style="swimlane;whiteSpace=wrap;html=1;fillColor=#fff2cc;strokeColor=#d6b656;" parent="1" vertex="1">
          <mxGeometry x="220" y="290" width="190" height="210" as="geometry">
            <mxRectangle x="320" y="210" width="90" height="30" as="alternateBounds" />
          </mxGeometry>
        </mxCell>
        <mxCell id="wTbuUublP3CUo9RuaERG-12" value="code" style="text;html=1;align=center;verticalAlign=middle;resizable=0;points=[];autosize=1;strokeColor=none;fillColor=none;" parent="wTbuUublP3CUo9RuaERG-11" vertex="1">
          <mxGeometry x="65" y="25" width="50" height="30" as="geometry" />
        </mxCell>
        <mxCell id="wTbuUublP3CUo9RuaERG-13" value="title" style="text;html=1;align=center;verticalAlign=middle;resizable=0;points=[];autosize=1;strokeColor=none;fillColor=none;" parent="wTbuUublP3CUo9RuaERG-11" vertex="1">
          <mxGeometry x="70" y="55" width="40" height="30" as="geometry" />
        </mxCell>
        <mxCell id="wTbuUublP3CUo9RuaERG-14" value="description" style="text;html=1;align=center;verticalAlign=middle;resizable=0;points=[];autosize=1;strokeColor=none;fillColor=none;" parent="wTbuUublP3CUo9RuaERG-11" vertex="1">
          <mxGeometry x="50" y="78" width="80" height="30" as="geometry" />
        </mxCell>
        <mxCell id="ZKemoDgkjOs0aR_X4RYM-1" value="daily_price" style="text;html=1;align=center;verticalAlign=middle;resizable=0;points=[];autosize=1;strokeColor=none;fillColor=none;" parent="wTbuUublP3CUo9RuaERG-11" vertex="1">
          <mxGeometry x="50" y="108" width="80" height="30" as="geometry" />
        </mxCell>
        <mxCell id="ZKemoDgkjOs0aR_X4RYM-2" value="status" style="text;html=1;align=center;verticalAlign=middle;resizable=0;points=[];autosize=1;strokeColor=none;fillColor=none;" parent="wTbuUublP3CUo9RuaERG-11" vertex="1">
          <mxGeometry x="60" y="138" width="60" height="30" as="geometry" />
        </mxCell>
        <mxCell id="ZKemoDgkjOs0aR_X4RYM-10" value="location" style="text;html=1;align=center;verticalAlign=middle;resizable=0;points=[];autosize=1;strokeColor=none;fillColor=none;" parent="wTbuUublP3CUo9RuaERG-11" vertex="1">
          <mxGeometry x="60" y="168" width="60" height="30" as="geometry" />
        </mxCell>
        <mxCell id="ZKemoDgkjOs0aR_X4RYM-3" value="authors" style="text;html=1;align=center;verticalAlign=middle;resizable=0;points=[];autosize=1;strokeColor=none;fillColor=none;" parent="1" vertex="1">
          <mxGeometry x="120" y="598" width="60" height="30" as="geometry" />
        </mxCell>
        <mxCell id="ZKemoDgkjOs0aR_X4RYM-12" value="release_date" style="text;html=1;align=center;verticalAlign=middle;resizable=0;points=[];autosize=1;strokeColor=none;fillColor=none;" parent="1" vertex="1">
          <mxGeometry x="465" y="668" width="90" height="30" as="geometry" />
        </mxCell>
        <mxCell id="ZKemoDgkjOs0aR_X4RYM-21" value="1" style="text;html=1;align=center;verticalAlign=middle;resizable=0;points=[];autosize=1;strokeColor=none;fillColor=none;" parent="1" vertex="1">
          <mxGeometry x="380" y="98" width="30" height="30" as="geometry" />
        </mxCell>
        <mxCell id="ZKemoDgkjOs0aR_X4RYM-22" value="1" style="text;html=1;align=center;verticalAlign=middle;resizable=0;points=[];autosize=1;strokeColor=none;fillColor=none;" parent="1" vertex="1">
          <mxGeometry x="235" y="98" width="30" height="30" as="geometry" />
        </mxCell>
        <mxCell id="ZKemoDgkjOs0aR_X4RYM-23" value="1" style="text;html=1;align=center;verticalAlign=middle;resizable=0;points=[];autosize=1;strokeColor=none;fillColor=none;" parent="1" vertex="1">
          <mxGeometry x="105" y="208" width="30" height="30" as="geometry" />
        </mxCell>
        <mxCell id="ZKemoDgkjOs0aR_X4RYM-24" value="1" style="text;html=1;align=center;verticalAlign=middle;resizable=0;points=[];autosize=1;strokeColor=none;fillColor=none;" parent="1" vertex="1">
          <mxGeometry x="325" y="248" width="30" height="30" as="geometry" />
        </mxCell>
      </root>
    </mxGraphModel>
  </diagram>
</mxfile>
